<?xml version="1.0" encoding="UTF-8"?>
<svg width="426px" height="55px" viewBox="0 0 426 55" version="1.1" xmlns="http://www.w3.org/2000/svg" xmlns:xlink="http://www.w3.org/1999/xlink">
    <!-- Generator: Sketch 42 (36781) - http://www.bohemiancoding.com/sketch -->
    <title>Panorama-Logo-OMBRA Copy</title>
    <desc>Created with Sketch.</desc>
    <defs>
        <filter x="-50%" y="-50%" width="200%" height="200%" filterUnits="objectBoundingBox" id="filter-1">
            <feOffset dx="0" dy="2" in="SourceAlpha" result="shadowOffsetOuter1"></feOffset>
            <feColorMatrix values="0 0 0 0 0.290196078   0 0 0 0 0.290196078   0 0 0 0 0.290196078  0 0 0 0.3 0" type="matrix" in="shadowOffsetOuter1" result="shadowMatrixOuter1"></feColorMatrix>
            <feMerge>
                <feMergeNode in="shadowMatrixOuter1"></feMergeNode>
                <feMergeNode in="SourceGraphic"></feMergeNode>
            </feMerge>
        </filter>
    </defs>
    <g id="Page-1" stroke="none" stroke-width="1" fill="none" fill-rule="evenodd">
        <g id="Desktop-HEADER-BIG-Copy-13" transform="translate(-507.000000, -33.000000)" fill="#FFFFFF">
            <g id="Panorama-Logo-OMBRA" transform="translate(507.000000, 32.000000)">
                <g id="Panorama-Logo-Copy" filter="url(#filter-1)" transform="translate(0.000000, 1.000000)">
                    <g id="Page-1">
                        <path d="M398.200937,27.8819563 C396.9042,23.371731 395.783263,19.4721254 394.661776,15.5725197 C394.442989,15.6232803 394.224203,15.6740408 394.005416,15.7248014 C392.930221,19.6684493 391.854474,23.6128437 390.690552,27.8819563 L398.200937,27.8819563 Z M279.69413,27.875238 C278.424397,23.4157732 277.30842,19.4952662 276.192443,15.5747592 C275.973106,15.6113366 275.753768,15.6479141 275.53443,15.685238 C274.452071,19.627393 273.370262,23.5695479 272.188153,27.875238 L279.69413,27.875238 Z M225.215729,22.5670268 C228.775833,22.4259423 231.961188,23.1179282 235.096945,21.8526465 C237.271584,20.9755338 238.518723,18.9421254 238.492821,15.8263225 C238.466368,12.5806324 236.969582,10.9562944 234.766836,10.2837169 C232.318301,9.53574507 229.833393,9.76491408 227.363364,9.84329437 C225.988922,9.88733662 225.185419,10.9212099 225.207463,12.9486465 C225.239426,15.914407 225.215729,18.8816606 225.215729,22.5670268 L225.215729,22.5670268 Z M233.263988,43.4647028 L233.263988,51.354238 L200.820754,51.354238 C200.324213,48.6691535 200.442148,46.1453085 200.724311,43.458731 C202.56278,42.5002521 204.413923,43.1571535 206.202241,42.9376887 C209.462547,42.5368296 210.821007,40.7161676 210.855727,36.2753648 C210.908081,29.5592944 210.914143,22.8409845 210.856278,16.1249141 C210.819354,11.836393 209.314852,9.8597169 206.096981,9.55515352 C204.375897,9.39242113 202.626707,9.90301268 200.744702,9.1849 C200.401918,6.65284366 200.421758,4.12974507 200.675263,1.75594225 C201.41043,0.775815493 202.179765,1.04678732 202.891786,1.04604085 C214.278606,1.0370831 225.665977,1.0370831 237.052798,1.0512662 C240.200128,1.05499859 243.269201,1.71115352 246.231913,3.19440704 C248.160761,4.15960423 249.86917,5.57866056 251.208893,7.71359014 C255.065488,13.8608437 252.913445,22.893238 247.143432,24.8094493 C246.451802,25.0393648 245.629561,24.7504775 245.125856,25.7029845 C244.978712,25.9806746 244.924153,26.3486887 244.719144,27.0369423 C249.31256,28.4866042 250.813755,33.1334352 251.396818,38.7618859 C251.596316,40.6892944 252.227877,42.4061958 253.869602,42.7212099 C255.493142,43.033238 256.988826,42.6682099 258.03316,40.685562 C259.488063,37.9220972 260.321325,34.7413507 261.309447,31.6718296 C264.24295,22.5565761 267.1748,13.4383366 269.992573,4.25664648 C270.736006,1.83506901 271.711452,0.834787324 273.702024,0.975871831 C276.998702,1.21101268 280.315771,1.17742113 283.615204,0.985576056 C285.476267,0.87733662 286.429118,1.85820986 287.177512,4.08197042 C291.01041,15.473238 294.958487,26.7935901 298.817287,38.1684352 C299.782813,41.0162521 301.176544,42.7234493 303.594218,42.9503789 C308.356821,43.3960268 310.004058,41.5089282 310.061372,35.0294915 C310.113727,29.0599 310.125851,23.0873225 310.053106,17.117731 C309.985871,11.6520127 308.556319,9.88285775 304.4622,9.78282958 C303.024381,9.74699859 301.549639,10.1015761 300.189525,9.40959014 C299.627403,7.52697042 299.975147,5.76975915 299.892482,4.06106901 C299.852252,3.2242662 299.992231,2.37178732 300.04183,1.65367465 C300.99909,0.731026761 301.945328,1.05947746 302.837558,1.05649155 C311.194433,1.03185775 319.551858,1.13412535 327.90708,0.974378873 C329.89214,0.936308451 330.893488,1.87687183 331.647393,4.25366056 C333.348086,9.61860423 335.208598,14.8909845 337.026125,20.1865056 C337.357887,21.1531958 337.422917,22.4065338 338.702019,22.9671394 C340.267142,18.3292662 342.220239,13.7988859 343.338971,8.91766056 C344.795527,2.56213944 347.346016,0.407801408 352.324099,0.863153521 C360.003121,1.56559014 367.741111,1.06992817 375.454301,1.09754789 C375.619631,1.09829437 375.784961,1.27297042 376.116723,1.4610831 C376.674435,3.98268873 376.469977,6.61178732 376.187263,9.24461831 C374.565928,10.2844634 372.988681,9.69399859 371.462135,9.76640704 C367.778586,9.94033662 366.24212,11.8744634 366.197481,16.8258577 C366.140166,23.1686887 366.179846,29.5130127 366.183703,35.8565901 C366.185357,38.7880127 366.738109,41.3111113 369.014151,42.433069 C371.790591,43.8021113 375.175445,42.9399282 376.593975,40.2652944 C377.493921,38.5678014 378.19051,36.6359141 378.812151,34.7107451 C382.087336,24.5780408 385.369685,14.4475761 388.507095,4.23649155 C389.267062,1.76191408 390.237548,0.838519718 392.212138,0.978857746 C395.417333,1.2065338 398.646226,1.22668873 401.849217,0.972139437 C403.963235,0.80418169 404.965685,1.96495634 405.791232,4.45073099 C409.10279,14.4229423 412.561491,24.3063225 415.945243,34.2359845 C418.641222,42.1479141 418.837965,42.3629 425.192143,43.2034352 C425.914635,45.7660972 425.506821,48.4325197 425.48147,51.4199282 L396.066529,51.4199282 C395.468034,48.774407 395.774997,46.3304352 395.790979,43.9618577 C397.443175,41.5917873 399.883996,43.8678014 401.563747,41.8836606 C401.977072,39.8644352 401.120112,38.3856606 400.327631,36.6762239 L388.508197,36.6762239 C387.426389,37.9922662 387.134306,39.7397732 386.951341,41.5149 C388.596924,43.9275197 390.868557,41.8426042 392.659631,43.5580127 C393.277965,45.8773225 392.915341,48.4183366 392.81945,51.3527451 L344.361261,51.3527451 C343.693328,48.7856042 344.003046,46.2550408 344.12043,43.8737732 C345.242469,42.361407 346.529287,43.0750408 347.662347,42.8682662 C349.719051,42.4920408 351.43242,41.1894352 351.517289,38.4132803 C351.733871,31.3023225 351.589483,24.1712099 351.589483,16.8460127 C350.453667,17.2185056 350.355571,18.4352662 350.034831,19.3556746 C346.627382,29.1330549 343.13782,38.8611676 339.892945,48.7370831 C338.904272,51.7468859 337.372767,51.7857028 335.461002,51.7804775 C333.468777,51.7752521 331.807763,51.8028718 330.766184,48.6415338 C327.589646,38.9962803 324.172829,29.4958437 320.819939,19.9580831 C320.458417,18.9301817 320.380712,17.5170972 318.893294,17.0796606 C318.893294,21.1315479 318.876761,25.0274211 318.899357,28.9232944 C318.912583,31.1604915 319.004617,33.3954493 319.034927,35.6326465 C319.107121,40.9423507 320.359219,42.6771676 324.345323,42.9668014 C324.974128,43.0130831 325.600728,43.1011676 326.297869,43.1773085 C327.175219,45.7690831 326.655532,48.3272662 326.67923,51.3049704 L277.660021,51.3049704 C276.955165,49.9769845 277.274803,48.6960268 277.232919,47.485238 C277.189934,46.2625056 277.222999,45.0352944 277.222999,43.9670831 C279.015727,41.6761394 281.417419,43.8162944 283.072922,41.9418859 C283.578831,39.7897873 282.413256,38.4535901 282.0848,36.6665197 L270.025639,36.6665197 C268.914622,38.0064493 268.686466,39.7703789 268.522239,41.5432662 C270.198133,43.8767592 272.468112,41.834393 274.218955,43.5848859 C275.000415,45.7952099 274.270759,48.2727732 274.535287,50.3651535 C274.038195,51.3460268 273.579129,51.7416606 272.990003,51.7297169 C263.629025,51.5386183 254.252617,52.3246606 244.908723,51.3512521 C238.279545,50.6600127 236.452099,48.0652521 235.203858,39.0791394 C234.20747,31.903238 231.042505,29.3883507 225.24604,31.5008859 C225.34634,34.6801394 224.636523,38.0863225 226.264472,41.0588014 C227.983351,44.1969986 230.766404,42.258393 233.263988,43.4647028 L233.263988,43.4647028 Z" id="Fill-1"></path>
                        <path d="M62.674134,27.9215944 C65.4671069,27.9126366 67.6869361,28.4963831 70.1283074,27.4826648 C68.9511586,23.3285099 67.8533682,19.4527915 66.7555777,15.5770732 C66.5296269,15.6293268 66.3036761,15.6815803 66.0777252,15.7338338 C64.9986722,19.5983549 63.9196191,23.4621296 62.674134,27.9215944 M72.5046489,36.7046648 L60.3793552,36.7046648 C59.597896,38.376031 58.9139814,39.8294254 59.1245014,41.7545944 C60.6830111,43.8954958 62.9276398,41.8635803 64.6889542,43.4931437 C65.2290318,45.9109887 64.975526,48.4534958 64.8157071,51.3752141 L41.1702272,51.3752141 C40.5877149,48.7237211 40.8572026,46.1842 40.9767912,43.482693 C41.4898649,43.2893549 41.9246825,42.9429887 42.3264342,43.002707 C46.8300202,43.6670732 49.1832155,40.5191718 50.7891198,35.1392986 C54.1905066,23.7502704 57.866341,12.512031 61.5350111,0.879650704 C66.2474639,0.879650704 70.9086644,0.863228169 75.5698649,0.888608451 C76.9823332,0.896819718 77.263394,2.51667887 77.7175001,3.85436901 C81.5112699,15.0299042 85.2725247,26.2263408 89.1120357,37.3727634 C90.9042116,42.5764676 92.3232931,43.4341718 96.5243255,42.8407211 C99.061037,42.4816648 100.47571,40.6445803 100.534126,37.3630592 C100.664737,30.0333831 100.707723,22.6925099 100.553415,15.3643268 C100.478465,11.7939183 98.7871405,10.0956789 95.9335467,9.79260845 C94.2229335,9.61121408 92.4621702,10.2920028 90.8204445,9.36487606 C90.2897356,6.42225634 90.2654872,4.87032676 90.6832207,1.65598873 C91.453658,0.657946479 92.4180823,1.04686197 93.3059038,1.04312958 C100.190791,1.01700282 107.076781,1.11180563 113.960015,0.971467606 C115.818323,0.933397183 117.023027,1.76721408 118.135146,3.73045352 C122.604012,11.6199887 127.166015,19.4139746 131.705974,27.2296085 C132.124809,27.9499606 132.321001,29.0763972 133.414382,29.0256366 C133.414382,24.0003408 133.644191,18.9660873 133.332269,13.9937915 C133.131117,10.7891577 131.000015,9.82246761 128.839705,9.56194648 C127.40409,9.38950986 125.919428,9.92772113 124.44193,9.12898873 C124.069386,6.5932 124.202752,4.16266479 124.305257,1.37381972 L151.844256,1.37381972 C152.290095,3.97753803 152.156178,6.50735493 151.897712,9.0170169 C150.579482,9.98221408 149.273927,9.47834085 148.020175,9.52760845 C144.128861,9.68063662 142.587987,11.3923127 142.514139,16.6661859 C142.366996,27.1064394 142.446354,37.5534113 142.408328,47.9966507 C142.403368,49.3119465 142.760481,50.7728056 141.465397,52.2187352 C137.798931,52.2187352 133.781415,52.2112704 129.763899,52.2232141 C128.364106,52.2269465 127.681293,50.8571577 126.945575,49.5903831 C121.894196,40.8953972 116.858248,32.1832423 111.784274,23.5128901 C111.258525,22.6141296 111.019899,21.1891014 109.64215,21.0875803 C109.64215,26.9033972 109.465798,32.6714394 109.719303,38.4043972 C109.839443,41.1230732 111.470147,42.7145662 113.573694,42.8145944 C115.474437,42.9049183 117.379588,42.8340028 119.251673,42.8340028 C120.071159,45.8706789 119.687593,48.4154254 119.5906,51.3528197 L67.9690991,51.3528197 C67.5458546,48.5923408 67.5882893,46.1767352 67.841244,43.8559324 C69.5805144,41.6680028 71.9844109,43.8424958 73.6294432,41.9195662 C74.0273371,39.9190028 73.0937744,38.5678761 72.5046489,36.7046648" id="Fill-3"></path>
                        <path d="M24.4045646,25.3848352 C27.5061532,25.6908915 30.32117,25.9133423 33.0981609,25.1832859 C36.0740988,24.402469 37.6116668,21.8099479 37.6491415,17.9745394 C37.6882696,13.9487789 36.1110225,11.2622014 33.0849345,10.3686662 C30.8298349,9.70280704 28.5317495,10.0178211 26.2524016,10.0611169 C25.2246008,10.0805254 24.4447948,10.8650746 24.4249552,12.3207085 C24.3670898,16.6032577 24.4045646,20.8880465 24.4045646,25.3848352 L24.4045646,25.3848352 Z M0.155079431,51.4003704 L0.155079431,43.324962 C1.86514153,42.5978915 3.51678706,43.1249056 5.12599793,42.9554549 C8.32678448,42.6173 9.88749858,40.6727225 9.94426184,36.417793 C10.0329889,29.7076944 10.0269268,22.9931169 9.95142613,16.2822718 C9.90348047,12.0228634 8.34001087,10.0073704 5.12765123,9.80507465 C3.57906132,9.70803239 2.02496041,9.78865211 0.531480466,9.78865211 C-0.0984263907,6.88186338 -0.138656662,5.48296197 0.25537956,1.54006056 C0.925516688,0.637567606 1.79515188,1.06380704 2.57550893,1.06156761 C13.9540626,1.03469437 25.3331674,1.01827183 36.7122722,1.07201831 C38.5375141,1.08022958 40.3881066,1.24818732 42.183038,1.67890563 C48.2793019,3.14125775 52.3304352,9.19445493 52.4533304,16.8085394 C52.5977185,25.7842014 49.0370639,32.0374549 42.4806318,33.8155676 C37.590725,35.1413141 32.6010691,34.4284268 27.654399,34.5851873 C26.6684818,34.615793 25.6362722,34.1791028 24.7043627,34.9412577 C24.0457987,39.7762014 25.4279565,42.406793 28.8750846,42.899469 C31.1334908,43.2226944 33.4365361,42.5650465 35.7329682,43.3339197 C36.4433356,45.9689901 35.9098712,48.5114972 36.0763032,51.4003704 L0.155079431,51.4003704 Z" id="Fill-5"></path>
                        <path d="M176.174697,0.842102817 C181.853228,0.465877465 187.374144,1.10337042 192.584239,4.49014507 C202.14692,10.7075676 205.993595,24.5943141 201.461903,36.9455535 C198.971484,43.7325394 194.643699,47.5776521 189.494224,49.7603563 C180.013657,53.7793986 170.518211,53.7353563 161.150069,49.0758352 C153.323352,45.1829479 148.915657,37.1471028 148.700728,26.787469 C148.491862,16.7368775 152.873655,8.33973662 160.541103,3.84518732 C165.572643,0.895102817 170.846666,0.538285915 176.174697,0.842102817 Z M165.173096,26.5403845 C165.064529,28.7469761 165.361572,31.0849479 165.854806,33.3490183 C167.096433,39.0498775 169.959396,42.3836521 174.284426,43.201793 C178.424286,43.9855958 182.188296,42.9002155 184.871049,38.1085676 C188.140172,32.2696099 188.091124,20.3177366 184.867191,14.4436944 C183.912136,12.7021592 182.699166,11.4421028 181.237098,10.5746944 C172.708832,5.51207465 165.18026,12.9037085 165.173096,26.5403845 Z" id="Combined-Shape"></path>
                    </g>
                </g>
            </g>
        </g>
    </g>
</svg>